<svg xmlns="http://www.w3.org/2000/svg" viewBox="0 0 32 32" fill="none">
  <!-- Background circle -->
  <circle cx="16" cy="16" r="16" fill="#C4A7E0"/>
  <!-- Open book (Tabler-inspired) -->
  <g stroke="#18181C" stroke-width="1.6" stroke-linecap="round" stroke-linejoin="round">
    <!-- Left book page -->
    <path d="M8 10 C8 10 10 9 13 10 L13 22 C10 21 8 22 8 22 Z" fill="white" fill-opacity="0.9"/>
    <!-- Right book page -->
    <path d="M24 10 C24 10 22 9 19 10 L19 22 C22 21 24 22 24 22 Z" fill="white" fill-opacity="0.9"/>
    <!-- Spine -->
    <line x1="16" y1="10" x2="16" y2="22"/>
    <!-- Left lines -->
    <line x1="10" y1="13" x2="13" y2="13.4"/>
    <line x1="10" y1="16" x2="13" y2="16.3"/>
    <line x1="10" y1="19" x2="13" y2="19.2"/>
    <!-- Right lines -->
    <line x1="22" y1="13" x2="19" y2="13.4"/>
    <line x1="22" y1="16" x2="19" y2="16.3"/>
    <line x1="22" y1="19" x2="19" y2="19.2"/>
  </g>
  <!-- Star above -->
  <path d="M16 5 L16.6 7 L18.5 7 L17 8.2 L17.5 10 L16 8.9 L14.5 10 L15 8.2 L13.5 7 L15.4 7 Z" fill="#18181C" fill-opacity="0.75"/>
</svg>
